<mxfile host="65bd71144e">
    <diagram id="7_DFSJN7kYFXj5fdT7Vn" name="Page-1">
        <mxGraphModel dx="1146" dy="644" grid="1" gridSize="10" guides="1" tooltips="1" connect="1" arrows="1" fold="1" page="1" pageScale="1" pageWidth="3300" pageHeight="4681" math="0" shadow="0">
            <root>
                <mxCell id="0"/>
                <mxCell id="1" parent="0"/>
                <mxCell id="3" value="RAM A, B" style="rounded=0;whiteSpace=wrap;html=1;" vertex="1" parent="1">
                    <mxGeometry x="80" y="150" width="120" height="530" as="geometry"/>
                </mxCell>
                <mxCell id="32" style="edgeStyle=none;html=1;exitX=1;exitY=0.75;exitDx=0;exitDy=0;entryX=0.5;entryY=1;entryDx=0;entryDy=0;" edge="1" parent="1" source="5" target="10">
                    <mxGeometry relative="1" as="geometry">
                        <mxPoint x="830" y="548" as="targetPoint"/>
                        <Array as="points">
                            <mxPoint x="800" y="548"/>
                        </Array>
                    </mxGeometry>
                </mxCell>
                <mxCell id="5" value="Pipeline Register" style="rounded=0;whiteSpace=wrap;html=1;" vertex="1" parent="1">
                    <mxGeometry x="520" y="150" width="120" height="530" as="geometry"/>
                </mxCell>
                <mxCell id="6" value="Pipeline Register" style="rounded=0;whiteSpace=wrap;html=1;" vertex="1" parent="1">
                    <mxGeometry x="960" y="150" width="120" height="530" as="geometry"/>
                </mxCell>
                <mxCell id="7" value="Pipeline Register" style="rounded=0;whiteSpace=wrap;html=1;" vertex="1" parent="1">
                    <mxGeometry x="1400" y="150" width="120" height="530" as="geometry"/>
                </mxCell>
                <mxCell id="8" value="RAM output" style="rounded=0;whiteSpace=wrap;html=1;" vertex="1" parent="1">
                    <mxGeometry x="1840" y="150" width="120" height="530" as="geometry"/>
                </mxCell>
                <mxCell id="16" style="edgeStyle=none;html=1;exitX=1.017;exitY=0.83;exitDx=0;exitDy=0;entryX=0;entryY=0.25;entryDx=0;entryDy=0;exitPerimeter=0;" edge="1" parent="1" source="3" target="9">
                    <mxGeometry relative="1" as="geometry"/>
                </mxCell>
                <mxCell id="20" style="edgeStyle=none;html=1;exitX=1;exitY=0.5;exitDx=0;exitDy=0;entryX=-0.004;entryY=0.868;entryDx=0;entryDy=0;entryPerimeter=0;" edge="1" parent="1" source="9" target="5">
                    <mxGeometry relative="1" as="geometry"/>
                </mxCell>
                <mxCell id="29" style="edgeStyle=none;html=1;exitX=0.5;exitY=1;exitDx=0;exitDy=0;entryX=0.5;entryY=1;entryDx=0;entryDy=0;" edge="1" parent="1" target="9">
                    <mxGeometry relative="1" as="geometry">
                        <mxPoint x="360" y="720" as="sourcePoint"/>
                    </mxGeometry>
                </mxCell>
                <mxCell id="31" style="edgeStyle=none;html=1;exitX=0.5;exitY=0;exitDx=0;exitDy=0;entryX=-0.004;entryY=0.735;entryDx=0;entryDy=0;entryPerimeter=0;" edge="1" parent="1" source="9" target="5">
                    <mxGeometry relative="1" as="geometry">
                        <mxPoint x="360" y="530" as="targetPoint"/>
                        <Array as="points">
                            <mxPoint x="360" y="540"/>
                        </Array>
                    </mxGeometry>
                </mxCell>
                <mxCell id="9" value="RCA&lt;br&gt;12 bits" style="whiteSpace=wrap;html=1;aspect=fixed;" vertex="1" parent="1">
                    <mxGeometry x="320" y="570" width="80" height="80" as="geometry"/>
                </mxCell>
                <mxCell id="10" value="RCA 12&amp;nbsp;&lt;br&gt;bits" style="whiteSpace=wrap;html=1;aspect=fixed;" vertex="1" parent="1">
                    <mxGeometry x="760" y="440" width="80" height="80" as="geometry"/>
                </mxCell>
                <mxCell id="11" value="RCA&amp;nbsp;&lt;br&gt;12 Bits" style="whiteSpace=wrap;html=1;aspect=fixed;" vertex="1" parent="1">
                    <mxGeometry x="1200" y="300" width="80" height="80" as="geometry"/>
                </mxCell>
                <mxCell id="12" value="RCA 12&lt;br&gt;bits" style="whiteSpace=wrap;html=1;aspect=fixed;" vertex="1" parent="1">
                    <mxGeometry x="1640" y="180" width="80" height="80" as="geometry"/>
                </mxCell>
                <mxCell id="17" style="edgeStyle=none;html=1;exitX=1.017;exitY=0.83;exitDx=0;exitDy=0;entryX=0;entryY=0.25;entryDx=0;entryDy=0;exitPerimeter=0;" edge="1" parent="1">
                    <mxGeometry relative="1" as="geometry">
                        <mxPoint x="199.99999999999997" y="609.5000000000001" as="sourcePoint"/>
                        <mxPoint x="317.96" y="609.6" as="targetPoint"/>
                    </mxGeometry>
                </mxCell>
                <mxCell id="18" value="A[11:0]" style="text;html=1;align=center;verticalAlign=middle;resizable=0;points=[];autosize=1;strokeColor=none;fillColor=none;" vertex="1" parent="1">
                    <mxGeometry x="210" y="565" width="60" height="30" as="geometry"/>
                </mxCell>
                <mxCell id="19" value="B[11:0]" style="text;html=1;align=center;verticalAlign=middle;resizable=0;points=[];autosize=1;strokeColor=none;fillColor=none;" vertex="1" parent="1">
                    <mxGeometry x="210" y="605" width="60" height="30" as="geometry"/>
                </mxCell>
                <mxCell id="21" style="edgeStyle=none;html=1;exitX=1;exitY=0.5;exitDx=0;exitDy=0;entryX=0;entryY=0.867;entryDx=0;entryDy=0;entryPerimeter=0;" edge="1" parent="1" target="6">
                    <mxGeometry relative="1" as="geometry">
                        <mxPoint x="640" y="609.5" as="sourcePoint"/>
                        <mxPoint x="759.52" y="609.54" as="targetPoint"/>
                    </mxGeometry>
                </mxCell>
                <mxCell id="22" style="edgeStyle=none;html=1;exitX=1;exitY=0.5;exitDx=0;exitDy=0;entryX=0;entryY=0.867;entryDx=0;entryDy=0;entryPerimeter=0;" edge="1" parent="1">
                    <mxGeometry relative="1" as="geometry">
                        <mxPoint x="1080" y="609.5" as="sourcePoint"/>
                        <mxPoint x="1400" y="609.51" as="targetPoint"/>
                    </mxGeometry>
                </mxCell>
                <mxCell id="23" style="edgeStyle=none;html=1;exitX=1;exitY=0.5;exitDx=0;exitDy=0;entryX=0;entryY=0.867;entryDx=0;entryDy=0;entryPerimeter=0;" edge="1" parent="1">
                    <mxGeometry relative="1" as="geometry">
                        <mxPoint x="1520" y="609.5" as="sourcePoint"/>
                        <mxPoint x="1840" y="609.51" as="targetPoint"/>
                    </mxGeometry>
                </mxCell>
                <mxCell id="24" value="sum[11:0]&lt;span style=&quot;color: rgba(0, 0, 0, 0); font-family: monospace; font-size: 0px; text-align: start;&quot;&gt;%3CmxGraphModel%3E%3Croot%3E%3CmxCell%20id%3D%220%22%2F%3E%3CmxCell%20id%3D%221%22%20parent%3D%220%22%2F%3E%3CmxCell%20id%3D%222%22%20style%3D%22edgeStyle%3Dnone%3Bhtml%3D1%3BexitX%3D1%3BexitY%3D0.5%3BexitDx%3D0%3BexitDy%3D0%3BentryX%3D0%3BentryY%3D0.867%3BentryDx%3D0%3BentryDy%3D0%3BentryPerimeter%3D0%3B%22%20edge%3D%221%22%20parent%3D%221%22%3E%3CmxGeometry%20relative%3D%221%22%20as%3D%22geometry%22%3E%3CmxPoint%20x%3D%22640%22%20y%3D%22609.5%22%20as%3D%22sourcePoint%22%2F%3E%3CmxPoint%20x%3D%22960%22%20y%3D%22609.51%22%20as%3D%22targetPoint%22%2F%3E%3C%2FmxGeometry%3E%3C%2FmxCell%3E%3C%2Froot%3E%3C%2FmxGraphModel%3E&lt;/span&gt;" style="text;html=1;align=center;verticalAlign=middle;resizable=0;points=[];autosize=1;strokeColor=none;fillColor=none;" vertex="1" parent="1">
                    <mxGeometry x="410" y="575" width="80" height="30" as="geometry"/>
                </mxCell>
                <mxCell id="25" value="sum[11:0]&lt;span style=&quot;color: rgba(0, 0, 0, 0); font-family: monospace; font-size: 0px; text-align: start;&quot;&gt;%3CmxGraphModel%3E%3Croot%3E%3CmxCell%20id%3D%220%22%2F%3E%3CmxCell%20id%3D%221%22%20parent%3D%220%22%2F%3E%3CmxCell%20id%3D%222%22%20style%3D%22edgeStyle%3Dnone%3Bhtml%3D1%3BexitX%3D1%3BexitY%3D0.5%3BexitDx%3D0%3BexitDy%3D0%3BentryX%3D0%3BentryY%3D0.867%3BentryDx%3D0%3BentryDy%3D0%3BentryPerimeter%3D0%3B%22%20edge%3D%221%22%20parent%3D%221%22%3E%3CmxGeometry%20relative%3D%221%22%20as%3D%22geometry%22%3E%3CmxPoint%20x%3D%22640%22%20y%3D%22609.5%22%20as%3D%22sourcePoint%22%2F%3E%3CmxPoint%20x%3D%22960%22%20y%3D%22609.51%22%20as%3D%22targetPoint%22%2F%3E%3C%2FmxGeometry%3E%3C%2FmxCell%3E%3C%2Froot%3E%3C%2FmxGraphModel%3E&lt;/span&gt;" style="text;html=1;align=center;verticalAlign=middle;resizable=0;points=[];autosize=1;strokeColor=none;fillColor=none;" vertex="1" parent="1">
                    <mxGeometry x="770" y="575" width="80" height="30" as="geometry"/>
                </mxCell>
                <mxCell id="27" value="sum[11:0]&lt;span style=&quot;color: rgba(0, 0, 0, 0); font-family: monospace; font-size: 0px; text-align: start;&quot;&gt;%3CmxGraphModel%3E%3Croot%3E%3CmxCell%20id%3D%220%22%2F%3E%3CmxCell%20id%3D%221%22%20parent%3D%220%22%2F%3E%3CmxCell%20id%3D%222%22%20style%3D%22edgeStyle%3Dnone%3Bhtml%3D1%3BexitX%3D1%3BexitY%3D0.5%3BexitDx%3D0%3BexitDy%3D0%3BentryX%3D0%3BentryY%3D0.867%3BentryDx%3D0%3BentryDy%3D0%3BentryPerimeter%3D0%3B%22%20edge%3D%221%22%20parent%3D%221%22%3E%3CmxGeometry%20relative%3D%221%22%20as%3D%22geometry%22%3E%3CmxPoint%20x%3D%22640%22%20y%3D%22609.5%22%20as%3D%22sourcePoint%22%2F%3E%3CmxPoint%20x%3D%22960%22%20y%3D%22609.51%22%20as%3D%22targetPoint%22%2F%3E%3C%2FmxGeometry%3E%3C%2FmxCell%3E%3C%2Froot%3E%3C%2FmxGraphModel%3E&lt;/span&gt;" style="text;html=1;align=center;verticalAlign=middle;resizable=0;points=[];autosize=1;strokeColor=none;fillColor=none;" vertex="1" parent="1">
                    <mxGeometry x="1210" y="575" width="80" height="30" as="geometry"/>
                </mxCell>
                <mxCell id="28" value="sum[11:0]&lt;span style=&quot;color: rgba(0, 0, 0, 0); font-family: monospace; font-size: 0px; text-align: start;&quot;&gt;%3CmxGraphModel%3E%3Croot%3E%3CmxCell%20id%3D%220%22%2F%3E%3CmxCell%20id%3D%221%22%20parent%3D%220%22%2F%3E%3CmxCell%20id%3D%222%22%20style%3D%22edgeStyle%3Dnone%3Bhtml%3D1%3BexitX%3D1%3BexitY%3D0.5%3BexitDx%3D0%3BexitDy%3D0%3BentryX%3D0%3BentryY%3D0.867%3BentryDx%3D0%3BentryDy%3D0%3BentryPerimeter%3D0%3B%22%20edge%3D%221%22%20parent%3D%221%22%3E%3CmxGeometry%20relative%3D%221%22%20as%3D%22geometry%22%3E%3CmxPoint%20x%3D%22640%22%20y%3D%22609.5%22%20as%3D%22sourcePoint%22%2F%3E%3CmxPoint%20x%3D%22960%22%20y%3D%22609.51%22%20as%3D%22targetPoint%22%2F%3E%3C%2FmxGeometry%3E%3C%2FmxCell%3E%3C%2Froot%3E%3C%2FmxGraphModel%3E&lt;/span&gt;" style="text;html=1;align=center;verticalAlign=middle;resizable=0;points=[];autosize=1;strokeColor=none;fillColor=none;" vertex="1" parent="1">
                    <mxGeometry x="1640" y="575" width="80" height="30" as="geometry"/>
                </mxCell>
                <mxCell id="30" value="carry_in" style="text;html=1;align=center;verticalAlign=middle;resizable=0;points=[];autosize=1;strokeColor=none;fillColor=none;" vertex="1" parent="1">
                    <mxGeometry x="350" y="680" width="70" height="30" as="geometry"/>
                </mxCell>
                <mxCell id="33" value="c_carry_1" style="text;html=1;align=center;verticalAlign=middle;resizable=0;points=[];autosize=1;strokeColor=none;fillColor=none;" vertex="1" parent="1">
                    <mxGeometry x="380" y="510" width="80" height="30" as="geometry"/>
                </mxCell>
                <mxCell id="34" value="c_carry_1" style="text;html=1;align=center;verticalAlign=middle;resizable=0;points=[];autosize=1;strokeColor=none;fillColor=none;" vertex="1" parent="1">
                    <mxGeometry x="650" y="525" width="80" height="30" as="geometry"/>
                </mxCell>
                <mxCell id="35" style="edgeStyle=none;html=1;exitX=1.017;exitY=0.83;exitDx=0;exitDy=0;entryX=-0.021;entryY=0.601;entryDx=0;entryDy=0;exitPerimeter=0;entryPerimeter=0;" edge="1" parent="1" target="5">
                    <mxGeometry relative="1" as="geometry">
                        <mxPoint x="202.03999999999996" y="469.9000000000001" as="sourcePoint"/>
                        <mxPoint x="320" y="470" as="targetPoint"/>
                    </mxGeometry>
                </mxCell>
                <mxCell id="36" style="edgeStyle=none;html=1;exitX=1.017;exitY=0.83;exitDx=0;exitDy=0;entryX=-0.021;entryY=0.64;entryDx=0;entryDy=0;exitPerimeter=0;entryPerimeter=0;" edge="1" parent="1" target="5">
                    <mxGeometry relative="1" as="geometry">
                        <mxPoint x="200" y="489.5" as="sourcePoint"/>
                        <mxPoint x="317.96000000000004" y="489.5999999999999" as="targetPoint"/>
                    </mxGeometry>
                </mxCell>
                <mxCell id="37" value="A[23:12]" style="text;html=1;align=center;verticalAlign=middle;resizable=0;points=[];autosize=1;strokeColor=none;fillColor=none;" vertex="1" parent="1">
                    <mxGeometry x="205" y="445" width="70" height="30" as="geometry"/>
                </mxCell>
                <mxCell id="38" value="B[23:12]" style="text;html=1;align=center;verticalAlign=middle;resizable=0;points=[];autosize=1;strokeColor=none;fillColor=none;" vertex="1" parent="1">
                    <mxGeometry x="205" y="485" width="70" height="30" as="geometry"/>
                </mxCell>
                <mxCell id="39" style="edgeStyle=none;html=1;exitX=1.017;exitY=0.83;exitDx=0;exitDy=0;exitPerimeter=0;entryX=-0.017;entryY=0.338;entryDx=0;entryDy=0;entryPerimeter=0;" edge="1" parent="1" target="5">
                    <mxGeometry relative="1" as="geometry">
                        <mxPoint x="202.03999999999996" y="329.9000000000001" as="sourcePoint"/>
                        <mxPoint x="510" y="330" as="targetPoint"/>
                    </mxGeometry>
                </mxCell>
                <mxCell id="40" style="edgeStyle=none;html=1;exitX=1.017;exitY=0.83;exitDx=0;exitDy=0;entryX=0;entryY=0.377;entryDx=0;entryDy=0;exitPerimeter=0;entryPerimeter=0;" edge="1" parent="1" target="5">
                    <mxGeometry relative="1" as="geometry">
                        <mxPoint x="200" y="349.5" as="sourcePoint"/>
                        <mxPoint x="317.96000000000004" y="349.5999999999999" as="targetPoint"/>
                    </mxGeometry>
                </mxCell>
                <mxCell id="41" value="A[35:24]" style="text;html=1;align=center;verticalAlign=middle;resizable=0;points=[];autosize=1;strokeColor=none;fillColor=none;" vertex="1" parent="1">
                    <mxGeometry x="205" y="305" width="70" height="30" as="geometry"/>
                </mxCell>
                <mxCell id="42" value="B[35:24]" style="text;html=1;align=center;verticalAlign=middle;resizable=0;points=[];autosize=1;strokeColor=none;fillColor=none;" vertex="1" parent="1">
                    <mxGeometry x="205" y="345" width="70" height="30" as="geometry"/>
                </mxCell>
                <mxCell id="43" style="edgeStyle=none;html=1;exitX=1.017;exitY=0.83;exitDx=0;exitDy=0;entryX=-0.021;entryY=0.112;entryDx=0;entryDy=0;exitPerimeter=0;entryPerimeter=0;" edge="1" parent="1" target="5">
                    <mxGeometry relative="1" as="geometry">
                        <mxPoint x="202.03999999999996" y="209.9000000000001" as="sourcePoint"/>
                        <mxPoint x="320" y="210" as="targetPoint"/>
                    </mxGeometry>
                </mxCell>
                <mxCell id="44" style="edgeStyle=none;html=1;exitX=1.017;exitY=0.83;exitDx=0;exitDy=0;entryX=-0.033;entryY=0.149;entryDx=0;entryDy=0;exitPerimeter=0;entryPerimeter=0;" edge="1" parent="1" target="5">
                    <mxGeometry relative="1" as="geometry">
                        <mxPoint x="200" y="229.5" as="sourcePoint"/>
                        <mxPoint x="317.96000000000004" y="229.5999999999999" as="targetPoint"/>
                    </mxGeometry>
                </mxCell>
                <mxCell id="45" value="A[47:36]" style="text;html=1;align=center;verticalAlign=middle;resizable=0;points=[];autosize=1;strokeColor=none;fillColor=none;" vertex="1" parent="1">
                    <mxGeometry x="205" y="185" width="70" height="30" as="geometry"/>
                </mxCell>
                <mxCell id="46" value="B[47:36]" style="text;html=1;align=center;verticalAlign=middle;resizable=0;points=[];autosize=1;strokeColor=none;fillColor=none;" vertex="1" parent="1">
                    <mxGeometry x="205" y="225" width="70" height="30" as="geometry"/>
                </mxCell>
                <mxCell id="47" style="edgeStyle=none;html=1;exitX=1.017;exitY=0.83;exitDx=0;exitDy=0;entryX=-0.021;entryY=0.112;entryDx=0;entryDy=0;exitPerimeter=0;entryPerimeter=0;" edge="1" parent="1">
                    <mxGeometry relative="1" as="geometry">
                        <mxPoint x="642.04" y="209.9000000000001" as="sourcePoint"/>
                        <mxPoint x="957.48" y="209.36" as="targetPoint"/>
                    </mxGeometry>
                </mxCell>
                <mxCell id="48" style="edgeStyle=none;html=1;exitX=1.017;exitY=0.83;exitDx=0;exitDy=0;entryX=-0.033;entryY=0.149;entryDx=0;entryDy=0;exitPerimeter=0;entryPerimeter=0;" edge="1" parent="1">
                    <mxGeometry relative="1" as="geometry">
                        <mxPoint x="640" y="229.5" as="sourcePoint"/>
                        <mxPoint x="956.04" y="228.97000000000003" as="targetPoint"/>
                    </mxGeometry>
                </mxCell>
                <mxCell id="51" style="edgeStyle=none;html=1;exitX=1.017;exitY=0.83;exitDx=0;exitDy=0;entryX=-0.021;entryY=0.112;entryDx=0;entryDy=0;exitPerimeter=0;entryPerimeter=0;" edge="1" parent="1">
                    <mxGeometry relative="1" as="geometry">
                        <mxPoint x="1082.04" y="209.9000000000001" as="sourcePoint"/>
                        <mxPoint x="1397.48" y="209.36" as="targetPoint"/>
                    </mxGeometry>
                </mxCell>
                <mxCell id="52" style="edgeStyle=none;html=1;exitX=1.017;exitY=0.83;exitDx=0;exitDy=0;entryX=-0.033;entryY=0.149;entryDx=0;entryDy=0;exitPerimeter=0;entryPerimeter=0;" edge="1" parent="1">
                    <mxGeometry relative="1" as="geometry">
                        <mxPoint x="1080" y="229.5" as="sourcePoint"/>
                        <mxPoint x="1396.04" y="228.97000000000003" as="targetPoint"/>
                    </mxGeometry>
                </mxCell>
                <mxCell id="59" style="edgeStyle=none;html=1;exitX=1.017;exitY=0.83;exitDx=0;exitDy=0;entryX=0;entryY=0.25;entryDx=0;entryDy=0;exitPerimeter=0;" edge="1" parent="1">
                    <mxGeometry relative="1" as="geometry">
                        <mxPoint x="642.04" y="464.9000000000001" as="sourcePoint"/>
                        <mxPoint x="760" y="465" as="targetPoint"/>
                    </mxGeometry>
                </mxCell>
                <mxCell id="60" style="edgeStyle=none;html=1;exitX=1.017;exitY=0.83;exitDx=0;exitDy=0;entryX=0;entryY=0.25;entryDx=0;entryDy=0;exitPerimeter=0;" edge="1" parent="1">
                    <mxGeometry relative="1" as="geometry">
                        <mxPoint x="640" y="484.5" as="sourcePoint"/>
                        <mxPoint x="757.96" y="484.5999999999999" as="targetPoint"/>
                    </mxGeometry>
                </mxCell>
                <mxCell id="61" value="A[11:0]" style="text;html=1;align=center;verticalAlign=middle;resizable=0;points=[];autosize=1;strokeColor=none;fillColor=none;" vertex="1" parent="1">
                    <mxGeometry x="650" y="440" width="60" height="30" as="geometry"/>
                </mxCell>
                <mxCell id="62" value="B[11:0]" style="text;html=1;align=center;verticalAlign=middle;resizable=0;points=[];autosize=1;strokeColor=none;fillColor=none;" vertex="1" parent="1">
                    <mxGeometry x="650" y="480" width="60" height="30" as="geometry"/>
                </mxCell>
                <mxCell id="63" style="edgeStyle=none;html=1;exitX=1.017;exitY=0.83;exitDx=0;exitDy=0;entryX=0;entryY=0.25;entryDx=0;entryDy=0;exitPerimeter=0;" edge="1" parent="1">
                    <mxGeometry relative="1" as="geometry">
                        <mxPoint x="1082.04" y="324.9000000000001" as="sourcePoint"/>
                        <mxPoint x="1200" y="325" as="targetPoint"/>
                    </mxGeometry>
                </mxCell>
                <mxCell id="64" style="edgeStyle=none;html=1;exitX=1.017;exitY=0.83;exitDx=0;exitDy=0;entryX=0;entryY=0.25;entryDx=0;entryDy=0;exitPerimeter=0;" edge="1" parent="1">
                    <mxGeometry relative="1" as="geometry">
                        <mxPoint x="1080" y="344.5" as="sourcePoint"/>
                        <mxPoint x="1197.96" y="344.5999999999999" as="targetPoint"/>
                    </mxGeometry>
                </mxCell>
                <mxCell id="67" style="edgeStyle=none;html=1;exitX=1.017;exitY=0.83;exitDx=0;exitDy=0;entryX=0;entryY=0.25;entryDx=0;entryDy=0;exitPerimeter=0;" edge="1" parent="1">
                    <mxGeometry relative="1" as="geometry">
                        <mxPoint x="1522.04" y="209.9000000000001" as="sourcePoint"/>
                        <mxPoint x="1640" y="210" as="targetPoint"/>
                    </mxGeometry>
                </mxCell>
                <mxCell id="68" style="edgeStyle=none;html=1;exitX=1.017;exitY=0.83;exitDx=0;exitDy=0;entryX=0;entryY=0.25;entryDx=0;entryDy=0;exitPerimeter=0;" edge="1" parent="1">
                    <mxGeometry relative="1" as="geometry">
                        <mxPoint x="1520" y="229.5" as="sourcePoint"/>
                        <mxPoint x="1637.96" y="229.5999999999999" as="targetPoint"/>
                    </mxGeometry>
                </mxCell>
                <mxCell id="73" style="edgeStyle=none;html=1;exitX=1;exitY=0.5;exitDx=0;exitDy=0;entryX=-0.004;entryY=0.868;entryDx=0;entryDy=0;entryPerimeter=0;" edge="1" parent="1">
                    <mxGeometry relative="1" as="geometry">
                        <mxPoint x="840.48" y="479" as="sourcePoint"/>
                        <mxPoint x="960" y="479.03999999999996" as="targetPoint"/>
                    </mxGeometry>
                </mxCell>
                <mxCell id="74" style="edgeStyle=none;html=1;exitX=0.5;exitY=0;exitDx=0;exitDy=0;entryX=-0.004;entryY=0.735;entryDx=0;entryDy=0;entryPerimeter=0;" edge="1" parent="1">
                    <mxGeometry relative="1" as="geometry">
                        <mxPoint x="960" y="408.54999999999995" as="targetPoint"/>
                        <mxPoint x="800.48" y="439" as="sourcePoint"/>
                        <Array as="points">
                            <mxPoint x="800.48" y="409"/>
                        </Array>
                    </mxGeometry>
                </mxCell>
                <mxCell id="75" value="sum[23:12]&lt;span style=&quot;color: rgba(0, 0, 0, 0); font-family: monospace; font-size: 0px; text-align: start;&quot;&gt;%3CmxGraphModel%3E%3Croot%3E%3CmxCell%20id%3D%220%22%2F%3E%3CmxCell%20id%3D%221%22%20parent%3D%220%22%2F%3E%3CmxCell%20id%3D%222%22%20style%3D%22edgeStyle%3Dnone%3Bhtml%3D1%3BexitX%3D1%3BexitY%3D0.5%3BexitDx%3D0%3BexitDy%3D0%3BentryX%3D0%3BentryY%3D0.867%3BentryDx%3D0%3BentryDy%3D0%3BentryPerimeter%3D0%3B%22%20edge%3D%221%22%20parent%3D%221%22%3E%3CmxGeometry%20relative%3D%221%22%20as%3D%22geometry%22%3E%3CmxPoint%20x%3D%22640%22%20y%3D%22609.5%22%20as%3D%22sourcePoint%22%2F%3E%3CmxPoint%20x%3D%22960%22%20y%3D%22609.51%22%20as%3D%22targetPoint%22%2F%3E%3C%2FmxGeometry%3E%3C%2FmxCell%3E%3C%2Froot%3E%3C%2FmxGraphModel%3E&lt;/span&gt;" style="text;html=1;align=center;verticalAlign=middle;resizable=0;points=[];autosize=1;strokeColor=none;fillColor=none;" vertex="1" parent="1">
                    <mxGeometry x="850.48" y="444" width="80" height="30" as="geometry"/>
                </mxCell>
                <mxCell id="76" value="c_carry_1" style="text;html=1;align=center;verticalAlign=middle;resizable=0;points=[];autosize=1;strokeColor=none;fillColor=none;" vertex="1" parent="1">
                    <mxGeometry x="820.48" y="379" width="80" height="30" as="geometry"/>
                </mxCell>
                <mxCell id="77" style="edgeStyle=none;html=1;exitX=1;exitY=0.5;exitDx=0;exitDy=0;entryX=-0.004;entryY=0.868;entryDx=0;entryDy=0;entryPerimeter=0;" edge="1" parent="1">
                    <mxGeometry relative="1" as="geometry">
                        <mxPoint x="1280.48" y="344" as="sourcePoint"/>
                        <mxPoint x="1400" y="344.03999999999996" as="targetPoint"/>
                    </mxGeometry>
                </mxCell>
                <mxCell id="78" style="edgeStyle=none;html=1;exitX=0.5;exitY=0;exitDx=0;exitDy=0;entryX=-0.004;entryY=0.735;entryDx=0;entryDy=0;entryPerimeter=0;" edge="1" parent="1">
                    <mxGeometry relative="1" as="geometry">
                        <mxPoint x="1400" y="273.54999999999995" as="targetPoint"/>
                        <mxPoint x="1240.48" y="304" as="sourcePoint"/>
                        <Array as="points">
                            <mxPoint x="1240.48" y="274"/>
                        </Array>
                    </mxGeometry>
                </mxCell>
                <mxCell id="79" value="sum[35:24]&lt;span style=&quot;color: rgba(0, 0, 0, 0); font-family: monospace; font-size: 0px; text-align: start;&quot;&gt;%3CmxGraphModel%3E%3Croot%3E%3CmxCell%20id%3D%220%22%2F%3E%3CmxCell%20id%3D%221%22%20parent%3D%220%22%2F%3E%3CmxCell%20id%3D%222%22%20style%3D%22edgeStyle%3Dnone%3Bhtml%3D1%3BexitX%3D1%3BexitY%3D0.5%3BexitDx%3D0%3BexitDy%3D0%3BentryX%3D0%3BentryY%3D0.867%3BentryDx%3D0%3BentryDy%3D0%3BentryPerimeter%3D0%3B%22%20edge%3D%221%22%20parent%3D%221%22%3E%3CmxGeometry%20relative%3D%221%22%20as%3D%22geometry%22%3E%3CmxPoint%20x%3D%22640%22%20y%3D%22609.5%22%20as%3D%22sourcePoint%22%2F%3E%3CmxPoint%20x%3D%22960%22%20y%3D%22609.51%22%20as%3D%22targetPoint%22%2F%3E%3C%2FmxGeometry%3E%3C%2FmxCell%3E%3C%2Froot%3E%3C%2FmxGraphModel%3E\&lt;/span&gt;" style="text;html=1;align=center;verticalAlign=middle;resizable=0;points=[];autosize=1;strokeColor=none;fillColor=none;" vertex="1" parent="1">
                    <mxGeometry x="1290.48" y="309" width="80" height="30" as="geometry"/>
                </mxCell>
                <mxCell id="80" value="c_carry_1" style="text;html=1;align=center;verticalAlign=middle;resizable=0;points=[];autosize=1;strokeColor=none;fillColor=none;" vertex="1" parent="1">
                    <mxGeometry x="1260.48" y="244" width="80" height="30" as="geometry"/>
                </mxCell>
                <mxCell id="81" style="edgeStyle=none;html=1;exitX=1;exitY=0.5;exitDx=0;exitDy=0;entryX=-0.004;entryY=0.868;entryDx=0;entryDy=0;entryPerimeter=0;" edge="1" parent="1">
                    <mxGeometry relative="1" as="geometry">
                        <mxPoint x="1720.48" y="230" as="sourcePoint"/>
                        <mxPoint x="1840" y="230.03999999999996" as="targetPoint"/>
                    </mxGeometry>
                </mxCell>
                <mxCell id="82" style="edgeStyle=none;html=1;exitX=0.5;exitY=0;exitDx=0;exitDy=0;" edge="1" parent="1">
                    <mxGeometry relative="1" as="geometry">
                        <mxPoint x="1840" y="130" as="targetPoint"/>
                        <mxPoint x="1680.48" y="190" as="sourcePoint"/>
                        <Array as="points">
                            <mxPoint x="1680" y="130"/>
                        </Array>
                    </mxGeometry>
                </mxCell>
                <mxCell id="83" value="sum[47:36]&lt;span style=&quot;color: rgba(0, 0, 0, 0); font-family: monospace; font-size: 0px; text-align: start;&quot;&gt;%3CmxGraphModel%3E%3Croot%3E%3CmxCell%20id%3D%220%22%2F%3E%3CmxCell%20id%3D%221%22%20parent%3D%220%22%2F%3E%3CmxCell%20id%3D%222%22%20style%3D%22edgeStyle%3Dnone%3Bhtml%3D1%3BexitX%3D1%3BexitY%3D0.5%3BexitDx%3D0%3BexitDy%3D0%3BentryX%3D0%3BentryY%3D0.867%3BentryDx%3D0%3BentryDy%3D0%3BentryPerimeter%3D0%3B%22%20edge%3D%221%22%20parent%3D%221%22%3E%3CmxGeometry%20relative%3D%221%22%20as%3D%22geometry%22%3E%3CmxPoint%20x%3D%22640%22%20y%3D%22609.5%22%20as%3D%22sourcePoint%22%2F%3E%3CmxPoint%20x%3D%22960%22%20y%3D%22609.51%22%20as%3D%22targetPoint%22%2F%3E%3C%2FmxGeometry%3E%3C%2FmxCell%3E%3C%2Froot%3E%3C%2FmxGraphModel%3E&lt;/span&gt;" style="text;html=1;align=center;verticalAlign=middle;resizable=0;points=[];autosize=1;strokeColor=none;fillColor=none;" vertex="1" parent="1">
                    <mxGeometry x="1730.48" y="195" width="80" height="30" as="geometry"/>
                </mxCell>
                <mxCell id="84" value="c_out" style="text;html=1;align=center;verticalAlign=middle;resizable=0;points=[];autosize=1;strokeColor=none;fillColor=none;" vertex="1" parent="1">
                    <mxGeometry x="1735" y="100" width="50" height="30" as="geometry"/>
                </mxCell>
                <mxCell id="86" style="edgeStyle=none;html=1;exitX=1.017;exitY=0.83;exitDx=0;exitDy=0;entryX=-0.021;entryY=0.112;entryDx=0;entryDy=0;exitPerimeter=0;entryPerimeter=0;" edge="1" parent="1">
                    <mxGeometry relative="1" as="geometry">
                        <mxPoint x="642.04" y="324.9000000000001" as="sourcePoint"/>
                        <mxPoint x="957.48" y="324.36" as="targetPoint"/>
                    </mxGeometry>
                </mxCell>
                <mxCell id="87" style="edgeStyle=none;html=1;exitX=1.017;exitY=0.83;exitDx=0;exitDy=0;entryX=-0.033;entryY=0.149;entryDx=0;entryDy=0;exitPerimeter=0;entryPerimeter=0;" edge="1" parent="1">
                    <mxGeometry relative="1" as="geometry">
                        <mxPoint x="640" y="344.5" as="sourcePoint"/>
                        <mxPoint x="956.04" y="343.97" as="targetPoint"/>
                    </mxGeometry>
                </mxCell>
                <mxCell id="90" style="edgeStyle=none;html=1;exitX=1;exitY=0.5;exitDx=0;exitDy=0;entryX=-0.025;entryY=0.621;entryDx=0;entryDy=0;entryPerimeter=0;" edge="1" parent="1" target="7">
                    <mxGeometry relative="1" as="geometry">
                        <mxPoint x="1080" y="479" as="sourcePoint"/>
                        <mxPoint x="1199.52" y="479.03999999999996" as="targetPoint"/>
                    </mxGeometry>
                </mxCell>
                <mxCell id="91" value="sum[23:12]&lt;span style=&quot;color: rgba(0, 0, 0, 0); font-family: monospace; font-size: 0px; text-align: start;&quot;&gt;%3CmxGraphModel%3E%3Croot%3E%3CmxCell%20id%3D%220%22%2F%3E%3CmxCell%20id%3D%221%22%20parent%3D%220%22%2F%3E%3CmxCell%20id%3D%222%22%20style%3D%22edgeStyle%3Dnone%3Bhtml%3D1%3BexitX%3D1%3BexitY%3D0.5%3BexitDx%3D0%3BexitDy%3D0%3BentryX%3D0%3BentryY%3D0.867%3BentryDx%3D0%3BentryDy%3D0%3BentryPerimeter%3D0%3B%22%20edge%3D%221%22%20parent%3D%221%22%3E%3CmxGeometry%20relative%3D%221%22%20as%3D%22geometry%22%3E%3CmxPoint%20x%3D%22640%22%20y%3D%22609.5%22%20as%3D%22sourcePoint%22%2F%3E%3CmxPoint%20x%3D%22960%22%20y%3D%22609.51%22%20as%3D%22targetPoint%22%2F%3E%3C%2FmxGeometry%3E%3C%2FmxCell%3E%3C%2Froot%3E%3C%2FmxGraphModel%3E&lt;/span&gt;" style="text;html=1;align=center;verticalAlign=middle;resizable=0;points=[];autosize=1;strokeColor=none;fillColor=none;" vertex="1" parent="1">
                    <mxGeometry x="1210" y="445" width="80" height="30" as="geometry"/>
                </mxCell>
                <mxCell id="92" style="edgeStyle=none;html=1;exitX=1;exitY=0.5;exitDx=0;exitDy=0;entryX=0;entryY=0.867;entryDx=0;entryDy=0;entryPerimeter=0;" edge="1" parent="1">
                    <mxGeometry relative="1" as="geometry">
                        <mxPoint x="1520" y="479.5" as="sourcePoint"/>
                        <mxPoint x="1840" y="479.51" as="targetPoint"/>
                    </mxGeometry>
                </mxCell>
                <mxCell id="93" value="sum[23:12]&lt;span style=&quot;color: rgba(0, 0, 0, 0); font-family: monospace; font-size: 0px; text-align: start;&quot;&gt;%3CmxGraphModel%3E%3Croot%3E%3CmxCell%20id%3D%220%22%2F%3E%3CmxCell%20id%3D%221%22%20parent%3D%220%22%2F%3E%3CmxCell%20id%3D%222%22%20style%3D%22edgeStyle%3Dnone%3Bhtml%3D1%3BexitX%3D1%3BexitY%3D0.5%3BexitDx%3D0%3BexitDy%3D0%3BentryX%3D0%3BentryY%3D0.867%3BentryDx%3D0%3BentryDy%3D0%3BentryPerimeter%3D0%3B%22%20edge%3D%221%22%20parent%3D%221%22%3E%3CmxGeometry%20relative%3D%221%22%20as%3D%22geometry%22%3E%3CmxPoint%20x%3D%22640%22%20y%3D%22609.5%22%20as%3D%22sourcePoint%22%2F%3E%3CmxPoint%20x%3D%22960%22%20y%3D%22609.51%22%20as%3D%22targetPoint%22%2F%3E%3C%2FmxGeometry%3E%3C%2FmxCell%3E%3C%2Froot%3E%3C%2FmxGraphModel%3E&lt;/span&gt;" style="text;html=1;align=center;verticalAlign=middle;resizable=0;points=[];autosize=1;strokeColor=none;fillColor=none;" vertex="1" parent="1">
                    <mxGeometry x="1650" y="445" width="80" height="30" as="geometry"/>
                </mxCell>
                <mxCell id="94" style="edgeStyle=none;html=1;exitX=1;exitY=0.5;exitDx=0;exitDy=0;entryX=0;entryY=0.867;entryDx=0;entryDy=0;entryPerimeter=0;" edge="1" parent="1">
                    <mxGeometry relative="1" as="geometry">
                        <mxPoint x="1520" y="344" as="sourcePoint"/>
                        <mxPoint x="1840" y="344.01" as="targetPoint"/>
                    </mxGeometry>
                </mxCell>
                <mxCell id="95" value="sum[35:24]&lt;span style=&quot;color: rgba(0, 0, 0, 0); font-family: monospace; font-size: 0px; text-align: start;&quot;&gt;%3CmxGraphModel%3E%3Croot%3E%3CmxCell%20id%3D%220%22%2F%3E%3CmxCell%20id%3D%221%22%20parent%3D%220%22%2F%3E%3CmxCell%20id%3D%222%22%20style%3D%22edgeStyle%3Dnone%3Bhtml%3D1%3BexitX%3D1%3BexitY%3D0.5%3BexitDx%3D0%3BexitDy%3D0%3BentryX%3D0%3BentryY%3D0.867%3BentryDx%3D0%3BentryDy%3D0%3BentryPerimeter%3D0%3B%22%20edge%3D%221%22%20parent%3D%221%22%3E%3CmxGeometry%20relative%3D%221%22%20as%3D%22geometry%22%3E%3CmxPoint%20x%3D%22640%22%20y%3D%22609.5%22%20as%3D%22sourcePoint%22%2F%3E%3CmxPoint%20x%3D%22960%22%20y%3D%22609.51%22%20as%3D%22targetPoint%22%2F%3E%3C%2FmxGeometry%3E%3C%2FmxCell%3E%3C%2Froot%3E%3C%2FmxGraphModel%3E&lt;/span&gt;" style="text;html=1;align=center;verticalAlign=middle;resizable=0;points=[];autosize=1;strokeColor=none;fillColor=none;" vertex="1" parent="1">
                    <mxGeometry x="1650" y="309.5" width="80" height="30" as="geometry"/>
                </mxCell>
                <mxCell id="96" value="A[47:36]" style="text;html=1;align=center;verticalAlign=middle;resizable=0;points=[];autosize=1;strokeColor=none;fillColor=none;" vertex="1" parent="1">
                    <mxGeometry x="730" y="185" width="70" height="30" as="geometry"/>
                </mxCell>
                <mxCell id="97" value="B[47:36]" style="text;html=1;align=center;verticalAlign=middle;resizable=0;points=[];autosize=1;strokeColor=none;fillColor=none;" vertex="1" parent="1">
                    <mxGeometry x="730" y="225" width="70" height="30" as="geometry"/>
                </mxCell>
                <mxCell id="98" value="A[47:36]" style="text;html=1;align=center;verticalAlign=middle;resizable=0;points=[];autosize=1;strokeColor=none;fillColor=none;" vertex="1" parent="1">
                    <mxGeometry x="1190.48" y="185" width="70" height="30" as="geometry"/>
                </mxCell>
                <mxCell id="99" value="B[47:36]" style="text;html=1;align=center;verticalAlign=middle;resizable=0;points=[];autosize=1;strokeColor=none;fillColor=none;" vertex="1" parent="1">
                    <mxGeometry x="1190.48" y="225" width="70" height="30" as="geometry"/>
                </mxCell>
                <mxCell id="100" value="A[47:36]" style="text;html=1;align=center;verticalAlign=middle;resizable=0;points=[];autosize=1;strokeColor=none;fillColor=none;" vertex="1" parent="1">
                    <mxGeometry x="1550" y="180" width="70" height="30" as="geometry"/>
                </mxCell>
                <mxCell id="101" value="B[47:36]" style="text;html=1;align=center;verticalAlign=middle;resizable=0;points=[];autosize=1;strokeColor=none;fillColor=none;" vertex="1" parent="1">
                    <mxGeometry x="1550" y="220" width="70" height="30" as="geometry"/>
                </mxCell>
                <mxCell id="104" value="A[35:24]" style="text;html=1;align=center;verticalAlign=middle;resizable=0;points=[];autosize=1;strokeColor=none;fillColor=none;" vertex="1" parent="1">
                    <mxGeometry x="740" y="300" width="70" height="30" as="geometry"/>
                </mxCell>
                <mxCell id="105" value="B[35:24]" style="text;html=1;align=center;verticalAlign=middle;resizable=0;points=[];autosize=1;strokeColor=none;fillColor=none;" vertex="1" parent="1">
                    <mxGeometry x="740" y="340" width="70" height="30" as="geometry"/>
                </mxCell>
                <mxCell id="106" value="A[35:24]" style="text;html=1;align=center;verticalAlign=middle;resizable=0;points=[];autosize=1;strokeColor=none;fillColor=none;" vertex="1" parent="1">
                    <mxGeometry x="1100" y="300" width="70" height="30" as="geometry"/>
                </mxCell>
                <mxCell id="107" value="B[35:24]" style="text;html=1;align=center;verticalAlign=middle;resizable=0;points=[];autosize=1;strokeColor=none;fillColor=none;" vertex="1" parent="1">
                    <mxGeometry x="1100" y="340" width="70" height="30" as="geometry"/>
                </mxCell>
                <mxCell id="108" style="edgeStyle=none;html=1;exitX=1;exitY=0.75;exitDx=0;exitDy=0;entryX=0.5;entryY=1;entryDx=0;entryDy=0;" edge="1" parent="1">
                    <mxGeometry relative="1" as="geometry">
                        <mxPoint x="1240" y="380" as="targetPoint"/>
                        <mxPoint x="1080" y="407.5" as="sourcePoint"/>
                        <Array as="points">
                            <mxPoint x="1240" y="408"/>
                        </Array>
                    </mxGeometry>
                </mxCell>
                <mxCell id="109" value="c_carry_2" style="text;html=1;align=center;verticalAlign=middle;resizable=0;points=[];autosize=1;strokeColor=none;fillColor=none;" vertex="1" parent="1">
                    <mxGeometry x="1090" y="385" width="80" height="30" as="geometry"/>
                </mxCell>
                <mxCell id="110" style="edgeStyle=none;html=1;exitX=1;exitY=0.75;exitDx=0;exitDy=0;entryX=0.5;entryY=1;entryDx=0;entryDy=0;" edge="1" parent="1">
                    <mxGeometry relative="1" as="geometry">
                        <mxPoint x="1680" y="255" as="targetPoint"/>
                        <mxPoint x="1520" y="282.5" as="sourcePoint"/>
                        <Array as="points">
                            <mxPoint x="1680" y="283"/>
                        </Array>
                    </mxGeometry>
                </mxCell>
                <mxCell id="111" value="c_carry_3" style="text;html=1;align=center;verticalAlign=middle;resizable=0;points=[];autosize=1;strokeColor=none;fillColor=none;" vertex="1" parent="1">
                    <mxGeometry x="1530" y="260" width="80" height="30" as="geometry"/>
                </mxCell>
            </root>
        </mxGraphModel>
    </diagram>
    <diagram id="iFknDpKQWc6hBe3Ddicv" name="Page-2">
        <mxGraphModel dx="1146" dy="644" grid="1" gridSize="10" guides="1" tooltips="1" connect="1" arrows="1" fold="1" page="1" pageScale="1" pageWidth="3300" pageHeight="4681" math="0" shadow="0">
            <root>
                <mxCell id="0"/>
                <mxCell id="1" parent="0"/>
                <mxCell id="79Ok9eQZv7qeA_990V6e-1" value="RAM A, B" style="rounded=0;whiteSpace=wrap;html=1;" vertex="1" parent="1">
                    <mxGeometry x="90" y="250" width="120" height="360" as="geometry"/>
                </mxCell>
                <mxCell id="79Ok9eQZv7qeA_990V6e-2" style="edgeStyle=none;html=1;exitX=1.038;exitY=0.639;exitDx=0;exitDy=0;entryX=0.5;entryY=1;entryDx=0;entryDy=0;exitPerimeter=0;" edge="1" parent="1" source="79Ok9eQZv7qeA_990V6e-3" target="79Ok9eQZv7qeA_990V6e-10">
                    <mxGeometry relative="1" as="geometry">
                        <mxPoint x="840" y="478" as="targetPoint"/>
                        <Array as="points">
                            <mxPoint x="810" y="476"/>
                        </Array>
                    </mxGeometry>
                </mxCell>
                <mxCell id="79Ok9eQZv7qeA_990V6e-3" value="Pipeline Register" style="rounded=0;whiteSpace=wrap;html=1;" vertex="1" parent="1">
                    <mxGeometry x="530" y="240" width="120" height="370" as="geometry"/>
                </mxCell>
                <mxCell id="79Ok9eQZv7qeA_990V6e-4" value="RAM C" style="rounded=0;whiteSpace=wrap;html=1;" vertex="1" parent="1">
                    <mxGeometry x="970" y="240" width="120" height="370" as="geometry"/>
                </mxCell>
                <mxCell id="79Ok9eQZv7qeA_990V6e-5" style="edgeStyle=none;html=1;exitX=1.017;exitY=0.83;exitDx=0;exitDy=0;entryX=0.013;entryY=0.619;entryDx=0;entryDy=0;exitPerimeter=0;entryPerimeter=0;" edge="1" parent="1" source="79Ok9eQZv7qeA_990V6e-1" target="79Ok9eQZv7qeA_990V6e-9">
                    <mxGeometry relative="1" as="geometry"/>
                </mxCell>
                <mxCell id="79Ok9eQZv7qeA_990V6e-6" style="edgeStyle=none;html=1;exitX=1;exitY=0.5;exitDx=0;exitDy=0;" edge="1" parent="1" source="79Ok9eQZv7qeA_990V6e-9">
                    <mxGeometry relative="1" as="geometry">
                        <mxPoint x="520" y="540" as="targetPoint"/>
                    </mxGeometry>
                </mxCell>
                <mxCell id="79Ok9eQZv7qeA_990V6e-7" style="edgeStyle=none;html=1;exitX=0.5;exitY=1;exitDx=0;exitDy=0;entryX=0.5;entryY=1;entryDx=0;entryDy=0;" edge="1" parent="1" target="79Ok9eQZv7qeA_990V6e-9">
                    <mxGeometry relative="1" as="geometry">
                        <mxPoint x="370" y="650" as="sourcePoint"/>
                    </mxGeometry>
                </mxCell>
                <mxCell id="79Ok9eQZv7qeA_990V6e-8" style="edgeStyle=none;html=1;exitX=0.5;exitY=0;exitDx=0;exitDy=0;entryX=-0.037;entryY=0.62;entryDx=0;entryDy=0;entryPerimeter=0;" edge="1" parent="1" source="79Ok9eQZv7qeA_990V6e-9" target="79Ok9eQZv7qeA_990V6e-3">
                    <mxGeometry relative="1" as="geometry">
                        <mxPoint x="370" y="460" as="targetPoint"/>
                        <Array as="points">
                            <mxPoint x="370" y="470"/>
                        </Array>
                    </mxGeometry>
                </mxCell>
                <mxCell id="79Ok9eQZv7qeA_990V6e-9" value="RCA&lt;br&gt;24 bits" style="whiteSpace=wrap;html=1;aspect=fixed;" vertex="1" parent="1">
                    <mxGeometry x="330" y="500" width="80" height="80" as="geometry"/>
                </mxCell>
                <mxCell id="79Ok9eQZv7qeA_990V6e-50" style="edgeStyle=none;html=1;exitX=0.5;exitY=0;exitDx=0;exitDy=0;" edge="1" parent="1" source="79Ok9eQZv7qeA_990V6e-10">
                    <mxGeometry relative="1" as="geometry">
                        <mxPoint x="810" y="280" as="targetPoint"/>
                    </mxGeometry>
                </mxCell>
                <mxCell id="79Ok9eQZv7qeA_990V6e-10" value="RCA 24&amp;nbsp;&lt;br&gt;bits" style="whiteSpace=wrap;html=1;aspect=fixed;" vertex="1" parent="1">
                    <mxGeometry x="770" y="370" width="80" height="80" as="geometry"/>
                </mxCell>
                <mxCell id="79Ok9eQZv7qeA_990V6e-11" style="edgeStyle=none;html=1;exitX=1.017;exitY=0.83;exitDx=0;exitDy=0;entryX=0;entryY=0.25;entryDx=0;entryDy=0;exitPerimeter=0;" edge="1" parent="1">
                    <mxGeometry relative="1" as="geometry">
                        <mxPoint x="210" y="539.5" as="sourcePoint"/>
                        <mxPoint x="327.96000000000004" y="539.5999999999999" as="targetPoint"/>
                    </mxGeometry>
                </mxCell>
                <mxCell id="79Ok9eQZv7qeA_990V6e-12" value="A[23:0]" style="text;html=1;align=center;verticalAlign=middle;resizable=0;points=[];autosize=1;strokeColor=none;fillColor=none;" vertex="1" parent="1">
                    <mxGeometry x="225" y="505" width="60" height="30" as="geometry"/>
                </mxCell>
                <mxCell id="79Ok9eQZv7qeA_990V6e-13" value="B[23:0]" style="text;html=1;align=center;verticalAlign=middle;resizable=0;points=[];autosize=1;strokeColor=none;fillColor=none;" vertex="1" parent="1">
                    <mxGeometry x="225" y="550" width="60" height="30" as="geometry"/>
                </mxCell>
                <mxCell id="79Ok9eQZv7qeA_990V6e-14" style="edgeStyle=none;html=1;exitX=1;exitY=0.5;exitDx=0;exitDy=0;" edge="1" parent="1">
                    <mxGeometry relative="1" as="geometry">
                        <mxPoint x="650" y="539.5" as="sourcePoint"/>
                        <mxPoint x="967" y="540" as="targetPoint"/>
                    </mxGeometry>
                </mxCell>
                <mxCell id="79Ok9eQZv7qeA_990V6e-15" value="sum[23:0]&lt;span style=&quot;color: rgba(0, 0, 0, 0); font-family: monospace; font-size: 0px; text-align: start;&quot;&gt;%3CmxGraphModel%3E%3Croot%3E%3CmxCell%20id%3D%220%22%2F%3E%3CmxCell%20id%3D%221%22%20parent%3D%220%22%2F%3E%3CmxCell%20id%3D%222%22%20style%3D%22edgeStyle%3Dnone%3Bhtml%3D1%3BexitX%3D1%3BexitY%3D0.5%3BexitDx%3D0%3BexitDy%3D0%3BentryX%3D0%3BentryY%3D0.867%3BentryDx%3D0%3BentryDy%3D0%3BentryPerimeter%3D0%3B%22%20edge%3D%221%22%20parent%3D%221%22%3E%3CmxGeometry%20relative%3D%221%22%20as%3D%22geometry%22%3E%3CmxPoint%20x%3D%22640%22%20y%3D%22609.5%22%20as%3D%22sourcePoint%22%2F%3E%3CmxPoint%20x%3D%22960%22%20y%3D%22609.51%22%20as%3D%22targetPoint%22%2F%3E%3C%2FmxGeometry%3E%3C%2FmxCell%3E%3C%2Froot%3E%3C%2FmxGraphModel%3E&lt;/span&gt;" style="text;html=1;align=center;verticalAlign=middle;resizable=0;points=[];autosize=1;strokeColor=none;fillColor=none;" vertex="1" parent="1">
                    <mxGeometry x="420" y="520" width="80" height="30" as="geometry"/>
                </mxCell>
                <mxCell id="79Ok9eQZv7qeA_990V6e-16" value="sum[23:0]&lt;span style=&quot;color: rgba(0, 0, 0, 0); font-family: monospace; font-size: 0px; text-align: start;&quot;&gt;%3CmxGraphModel%3E%3Croot%3E%3CmxCell%20id%3D%220%22%2F%3E%3CmxCell%20id%3D%221%22%20parent%3D%220%22%2F%3E%3CmxCell%20id%3D%222%22%20style%3D%22edgeStyle%3Dnone%3Bhtml%3D1%3BexitX%3D1%3BexitY%3D0.5%3BexitDx%3D0%3BexitDy%3D0%3BentryX%3D0%3BentryY%3D0.867%3BentryDx%3D0%3BentryDy%3D0%3BentryPerimeter%3D0%3B%22%20edge%3D%221%22%20parent%3D%221%22%3E%3CmxGeometry%20relative%3D%221%22%20as%3D%22geometry%22%3E%3CmxPoint%20x%3D%22640%22%20y%3D%22609.5%22%20as%3D%22sourcePoint%22%2F%3E%3CmxPoint%20x%3D%22960%22%20y%3D%22609.51%22%20as%3D%22targetPoint%22%2F%3E%3C%2FmxGeometry%3E%3C%2FmxCell%3E%3C%2Froot%3E%3C%2FmxGraphModel%3E&lt;/span&gt;" style="text;html=1;align=center;verticalAlign=middle;resizable=0;points=[];autosize=1;strokeColor=none;fillColor=none;" vertex="1" parent="1">
                    <mxGeometry x="860.48" y="505" width="80" height="30" as="geometry"/>
                </mxCell>
                <mxCell id="79Ok9eQZv7qeA_990V6e-17" value="carry_in" style="text;html=1;align=center;verticalAlign=middle;resizable=0;points=[];autosize=1;strokeColor=none;fillColor=none;" vertex="1" parent="1">
                    <mxGeometry x="360" y="610" width="70" height="30" as="geometry"/>
                </mxCell>
                <mxCell id="79Ok9eQZv7qeA_990V6e-18" value="c_carry_1" style="text;html=1;align=center;verticalAlign=middle;resizable=0;points=[];autosize=1;strokeColor=none;fillColor=none;" vertex="1" parent="1">
                    <mxGeometry x="390" y="440" width="80" height="30" as="geometry"/>
                </mxCell>
                <mxCell id="79Ok9eQZv7qeA_990V6e-19" value="c_carry_1" style="text;html=1;align=center;verticalAlign=middle;resizable=0;points=[];autosize=1;strokeColor=none;fillColor=none;" vertex="1" parent="1">
                    <mxGeometry x="670" y="475" width="80" height="30" as="geometry"/>
                </mxCell>
                <mxCell id="79Ok9eQZv7qeA_990V6e-20" style="edgeStyle=none;html=1;exitX=1.017;exitY=0.83;exitDx=0;exitDy=0;exitPerimeter=0;" edge="1" parent="1">
                    <mxGeometry relative="1" as="geometry">
                        <mxPoint x="212.03999999999996" y="399.9000000000001" as="sourcePoint"/>
                        <mxPoint x="530" y="400" as="targetPoint"/>
                    </mxGeometry>
                </mxCell>
                <mxCell id="79Ok9eQZv7qeA_990V6e-21" style="edgeStyle=none;html=1;exitX=1.017;exitY=0.83;exitDx=0;exitDy=0;entryX=-0.021;entryY=0.481;entryDx=0;entryDy=0;exitPerimeter=0;entryPerimeter=0;" edge="1" parent="1" target="79Ok9eQZv7qeA_990V6e-3">
                    <mxGeometry relative="1" as="geometry">
                        <mxPoint x="210" y="419.5" as="sourcePoint"/>
                        <mxPoint x="327.96000000000004" y="419.5999999999999" as="targetPoint"/>
                    </mxGeometry>
                </mxCell>
                <mxCell id="79Ok9eQZv7qeA_990V6e-22" value="A[47:24]" style="text;html=1;align=center;verticalAlign=middle;resizable=0;points=[];autosize=1;strokeColor=none;fillColor=none;" vertex="1" parent="1">
                    <mxGeometry x="215" y="375" width="70" height="30" as="geometry"/>
                </mxCell>
                <mxCell id="79Ok9eQZv7qeA_990V6e-23" value="B[47:24]" style="text;html=1;align=center;verticalAlign=middle;resizable=0;points=[];autosize=1;strokeColor=none;fillColor=none;" vertex="1" parent="1">
                    <mxGeometry x="215" y="415" width="70" height="30" as="geometry"/>
                </mxCell>
                <mxCell id="79Ok9eQZv7qeA_990V6e-34" style="edgeStyle=none;html=1;exitX=1.017;exitY=0.83;exitDx=0;exitDy=0;entryX=0;entryY=0.25;entryDx=0;entryDy=0;exitPerimeter=0;" edge="1" parent="1">
                    <mxGeometry relative="1" as="geometry">
                        <mxPoint x="652.04" y="394.9000000000001" as="sourcePoint"/>
                        <mxPoint x="770" y="395" as="targetPoint"/>
                    </mxGeometry>
                </mxCell>
                <mxCell id="79Ok9eQZv7qeA_990V6e-35" style="edgeStyle=none;html=1;exitX=1.017;exitY=0.83;exitDx=0;exitDy=0;entryX=0;entryY=0.25;entryDx=0;entryDy=0;exitPerimeter=0;" edge="1" parent="1">
                    <mxGeometry relative="1" as="geometry">
                        <mxPoint x="650" y="414.5" as="sourcePoint"/>
                        <mxPoint x="767.96" y="414.5999999999999" as="targetPoint"/>
                    </mxGeometry>
                </mxCell>
                <mxCell id="79Ok9eQZv7qeA_990V6e-36" value="A[47:24]" style="text;html=1;align=center;verticalAlign=middle;resizable=0;points=[];autosize=1;strokeColor=none;fillColor=none;" vertex="1" parent="1">
                    <mxGeometry x="655" y="370" width="70" height="30" as="geometry"/>
                </mxCell>
                <mxCell id="79Ok9eQZv7qeA_990V6e-37" value="B[47:24]" style="text;html=1;align=center;verticalAlign=middle;resizable=0;points=[];autosize=1;strokeColor=none;fillColor=none;" vertex="1" parent="1">
                    <mxGeometry x="655" y="410" width="70" height="30" as="geometry"/>
                </mxCell>
                <mxCell id="79Ok9eQZv7qeA_990V6e-38" style="edgeStyle=none;html=1;exitX=1;exitY=0.5;exitDx=0;exitDy=0;entryX=-0.004;entryY=0.868;entryDx=0;entryDy=0;entryPerimeter=0;" edge="1" parent="1">
                    <mxGeometry relative="1" as="geometry">
                        <mxPoint x="850.48" y="409" as="sourcePoint"/>
                        <mxPoint x="970" y="409.03999999999996" as="targetPoint"/>
                    </mxGeometry>
                </mxCell>
                <mxCell id="79Ok9eQZv7qeA_990V6e-40" value="sum[47:24]&lt;span style=&quot;color: rgba(0, 0, 0, 0); font-family: monospace; font-size: 0px; text-align: start;&quot;&gt;%3CmxGraphModel%3E%3Croot%3E%3CmxCell%20id%3D%220%22%2F%3E%3CmxCell%20id%3D%221%22%20parent%3D%220%22%2F%3E%3CmxCell%20id%3D%222%22%20style%3D%22edgeStyle%3Dnone%3Bhtml%3D1%3BexitX%3D1%3BexitY%3D0.5%3BexitDx%3D0%3BexitDy%3D0%3BentryX%3D0%3BentryY%3D0.867%3BentryDx%3D0%3BentryDy%3D0%3BentryPerimeter%3D0%3B%22%20edge%3D%221%22%20parent%3D%221%22%3E%3CmxGeometry%20relative%3D%221%22%20as%3D%22geometry%22%3E%3CmxPoint%20x%3D%22640%22%20y%3D%22609.5%22%20as%3D%22sourcePoint%22%2F%3E%3CmxPoint%20x%3D%22960%22%20y%3D%22609.51%22%20as%3D%22targetPoint%22%2F%3E%3C%2FmxGeometry%3E%3C%2FmxCell%3E%3C%2Froot%3E%3C%2FmxGraphModel%3E&lt;/span&gt;" style="text;html=1;align=center;verticalAlign=middle;resizable=0;points=[];autosize=1;strokeColor=none;fillColor=none;" vertex="1" parent="1">
                    <mxGeometry x="860.48" y="374" width="80" height="30" as="geometry"/>
                </mxCell>
                <mxCell id="79Ok9eQZv7qeA_990V6e-41" value="carry_out" style="text;html=1;align=center;verticalAlign=middle;resizable=0;points=[];autosize=1;strokeColor=none;fillColor=none;" vertex="1" parent="1">
                    <mxGeometry x="810" y="309" width="70" height="30" as="geometry"/>
                </mxCell>
            </root>
        </mxGraphModel>
    </diagram>
</mxfile>